<svg t="1758599651721" class="icon" viewBox="0 0 1024 1024" version="1.1" xmlns="http://www.w3.org/2000/svg" p-id="7190" width="150" height="150"><path d="M758.18816377 808.63085938h-38.85555268V697.78052521c0-75.31642914-63.03405762-124.13692475-108.99639131-160.59780121-12.82310486-9.96494294-28.42712403-22.24731445-35.53390501-30.35831452l-3.32164766-3.78513336 3.78513337-3.78513336c7.57026672-7.57026672 23.25153351-18.92566681 35.99739075-28.42712402C657.2255249 437.68778992 720.72306823 392.18894195 720.72306823 319.65342713V214.44216919h37.46509552c13.28659057 0 24.17850495-10.89191438 24.17850495-24.17850494s-10.89191438-24.17850495-24.17850495-24.17850495H267.35678863c-13.28659057 0-24.17850495 10.89191438-24.17850494 24.17850495s10.89191438 24.17850495 24.17850495 24.17850494h37.46509552v106.13822937c0 72.53551484 63.03405762 117.95711518 109.45987701 151.17359162 12.82310486 9.0379715 28.42712403 20.39337158 35.99739076 28.42712401l3.78513335 3.78513337-3.32164765 3.78513335c-7.10678101 8.03375244-22.71080017 20.39337158-35.53390503 30.35831454-45.96233367 35.99739075-108.9963913 85.28137207-108.99639129 160.13431548v110.85033417h-38.85555268c-13.28659057 0-24.17850495 10.89191438-24.17850494 24.17850494 0 13.28659057 10.89191438 24.17850495 24.17850494 24.17850494h490.90862275c6.64329529 0 12.35961914-2.39467621 17.07172394-7.106781 4.7121048-4.7121048 7.10678101-10.42842865 7.106781-17.07172395-0.07724763-13.7500763-10.96916198-24.64199066-24.25575255-24.64199066z m-155.34496309-68.20964814H422.70175171c-12.28237152 0-22.24731445-9.96494294-22.24731445-22.24731444s9.96494294-22.24731445 22.24731445-22.24731446h180.06420136c12.28237152 0 22.24731445 9.96494294 22.24731445 22.24731446 0.07724763 12.28237152-9.88769531 22.24731445-22.17006684 22.24731445z m0 1e-8" fill="#757575" p-id="7191"></path></svg>